<mxfile host="app.diagrams.net" agent="Mozilla/5.0 (Windows NT 10.0; Win64; x64) AppleWebKit/537.36 (KHTML, like Gecko) Chrome/139.0.0.0 Safari/537.36" version="28.2.0">
  <diagram name="Page-1" id="zgL6Di7iJ0Y1lWAI3NUE">
    <mxGraphModel dx="7565" dy="1878" grid="1" gridSize="10" guides="1" tooltips="1" connect="1" arrows="1" fold="1" page="1" pageScale="1" pageWidth="4000" pageHeight="2100" math="0" shadow="0">
      <root>
        <mxCell id="0" />
        <mxCell id="1" parent="0" />
        <mxCell id="pp7TLM8EPcdy0YVc-8Af-1" value="" style="rounded=0;whiteSpace=wrap;html=1;fillColor=none;strokeColor=light-dark(#000000,#FF1313);" vertex="1" parent="1">
          <mxGeometry x="-1910" y="1540" width="670" height="400" as="geometry" />
        </mxCell>
      </root>
    </mxGraphModel>
  </diagram>
</mxfile>
